<svg xmlns="http://www.w3.org/2000/svg" xmlns:xlink="http://www.w3.org/1999/xlink" width="500" zoomAndPan="magnify" viewBox="0 0 375 374.999991" height="500" preserveAspectRatio="xMidYMid meet" version="1.0"><defs><clipPath id="b39be43ca1"><path d="M 42.808594 42.808594 L 332.175781 42.808594 L 332.175781 332.175781 L 42.808594 332.175781 Z M 42.808594 42.808594 " clip-rule="nonzero"/></clipPath><clipPath id="e1f2895ea9"><path d="M 187.492188 332.175781 C 267.398438 332.175781 332.175781 267.398438 332.175781 187.492188 C 332.175781 107.585938 267.398438 42.808594 187.492188 42.808594 C 107.585938 42.808594 42.808594 107.585938 42.808594 187.492188 C 42.808594 267.398438 107.585938 332.175781 187.492188 332.175781 Z M 187.492188 332.175781 " clip-rule="nonzero"/></clipPath><clipPath id="fdc1b92031"><path d="M 82.496094 82.582031 L 187.496094 82.582031 L 187.496094 227.332031 L 82.496094 227.332031 Z M 82.496094 82.582031 " clip-rule="nonzero"/></clipPath><clipPath id="61c23b7bf1"><path d="M 187.5 147.667969 L 292.5 147.667969 L 292.5 292.417969 L 187.5 292.417969 Z M 187.5 147.667969 " clip-rule="nonzero"/></clipPath></defs><g clip-path="url(#b39be43ca1)"><g clip-path="url(#e1f2895ea9)"><path fill="#201f1e" d="M 332.175781 332.175781 L 42.808594 332.175781 L 42.808594 42.808594 L 332.175781 42.808594 Z M 332.175781 332.175781 " fill-opacity="1" fill-rule="nonzero"/></g></g><g clip-path="url(#fdc1b92031)"><path fill="#f47823" d="M 187.496094 201.167969 C 187.496094 209.84375 187.496094 218.519531 187.496094 227.300781 C 152.363281 203.09375 117.335938 178.996094 82.203125 154.785156 C 117.335938 130.6875 152.363281 106.585938 187.496094 82.378906 C 187.496094 91.054688 187.496094 99.730469 187.496094 108.300781 L 120.015625 154.679688 Z M 187.496094 201.167969 " fill-opacity="1" fill-rule="nonzero"/></g><g clip-path="url(#61c23b7bf1)"><path fill="#d9d9d9" d="M 187.5 173.832031 C 187.5 165.15625 187.5 156.480469 187.5 147.695312 C 222.632812 171.902344 257.660156 196.003906 292.792969 220.210938 C 257.660156 244.3125 222.632812 268.414062 187.5 292.621094 C 187.5 283.945312 187.5 275.269531 187.5 266.699219 L 254.980469 220.320312 Z M 187.5 173.832031 " fill-opacity="1" fill-rule="nonzero"/></g></svg>