<svg xmlns="http://www.w3.org/2000/svg" xmlns:xlink="http://www.w3.org/1999/xlink" width="2000" zoomAndPan="magnify" viewBox="0 0 1500 449.999984" height="600" preserveAspectRatio="xMidYMid meet" version="1.0"><defs><g/></defs><path stroke-linecap="butt" transform="matrix(0.75, 0, 0, 0.75, 37.311872, 74.169808)" fill="none" stroke-linejoin="miter" d="M 74.198759 286.99757 L 45.193549 257.92986 L 45.193549 123.190266 L 74.198759 94.117347 L 173.417517 94.117347 L 202.740436 123.190266 L 202.740436 162.159019 L 155.078974 162.159019 L 155.078974 140.440267 L 145.688348 131.299641 L 103.521678 131.299641 L 94.131052 140.440267 L 94.131052 240.679858 L 103.521678 249.815276 L 147.219598 249.815276 L 156.933141 240.679858 L 156.933141 218.70069 L 204.276894 218.70069 L 204.276894 257.92986 L 175.271684 286.99757 Z M 261.30294 286.99757 L 232.29773 257.92986 L 232.29773 179.476729 L 261.30294 150.40381 L 346.662322 150.40381 L 375.667533 179.476729 L 375.667533 257.92986 L 346.662322 286.99757 Z M 290.375859 259.784026 L 317.589403 259.784026 L 326.730029 250.393401 L 326.730029 186.757979 L 317.589403 177.622562 L 290.375859 177.622562 L 281.240442 186.757979 L 281.240442 250.393401 Z M 442.657121 286.99757 L 413.651911 257.92986 L 413.651911 179.476729 L 442.657121 150.148601 L 491.912333 150.148601 L 511.526918 166.888186 L 511.526918 94.117347 L 560.46963 94.117347 L 560.46963 286.99757 L 511.526918 286.99757 L 511.526918 270.518402 L 491.594625 286.99757 Z M 467.57379 259.018401 L 488.209208 259.018401 L 511.526918 238.825692 L 511.526918 198.25798 L 488.464416 178.132978 L 467.57379 178.132978 L 461.245664 185.226729 L 461.245664 252.435068 Z M 631.334219 286.99757 L 602.329009 257.92986 L 602.329009 179.476729 L 631.334219 150.40381 L 708.323809 150.40381 L 737.329019 179.476729 L 737.329019 231.289233 L 651.266512 231.289233 L 651.266512 243.29965 L 660.662347 252.435068 L 735.282144 252.435068 L 735.282144 286.99757 Z M 651.266512 202.987147 L 692.860266 202.987147 L 692.860266 186.757979 L 683.46964 177.622562 L 660.662347 177.622562 L 651.266512 186.757979 Z M 805.620691 286.99757 L 776.615481 257.92986 L 776.615481 123.190266 L 805.620691 94.117347 L 904.839449 94.117347 L 934.167576 123.190266 L 934.167576 162.159019 L 886.506114 162.159019 L 886.506114 140.440267 L 877.11028 131.299641 L 834.94361 131.299641 L 825.552984 140.440267 L 825.552984 240.679858 L 834.94361 249.815276 L 878.646739 249.815276 L 888.355073 240.679858 L 888.355073 218.70069 L 935.698826 218.70069 L 935.698826 257.92986 L 906.693616 286.99757 Z M 967.620704 286.99757 L 967.620704 150.148601 L 1016.558208 150.148601 L 1016.558208 171.617353 L 1039.881126 150.40381 L 1066.584253 150.40381 L 1066.584253 194.106938 L 1027.292583 194.106938 L 1016.558208 203.752772 L 1016.558208 286.99757 Z M 1117.875924 286.99757 L 1088.808213 257.92986 L 1088.808213 228.924649 L 1117.875924 199.856938 L 1182.980096 199.856938 L 1182.980096 190.721521 L 1173.584262 181.263187 L 1105.032173 181.263187 L 1105.032173 150.40381 L 1202.65718 150.40381 L 1231.917599 179.476729 L 1231.917599 286.99757 L 1182.980096 286.99757 L 1182.980096 268.409027 L 1164.959261 286.99757 Z M 1146.625926 260.294443 L 1160.745719 260.294443 L 1182.980096 238.060066 L 1182.980096 224.195482 L 1146.625926 224.195482 L 1137.490509 233.330899 L 1137.490509 251.159026 Z M 1274.849894 286.99757 L 1274.849894 180.75277 L 1263.86031 180.75277 L 1263.86031 150.40381 L 1274.849894 150.40381 L 1274.849894 119.799641 L 1302.579063 94.117347 L 1354.136359 94.117347 L 1354.136359 122.674641 L 1331.136357 122.674641 L 1323.787398 129.705891 L 1323.787398 150.40381 L 1347.875942 150.40381 L 1347.875942 180.75277 L 1323.787398 180.75277 L 1323.787398 286.99757 Z M 1411.224905 286.99757 L 1383.750945 261.638193 L 1383.750945 180.75277 L 1373.787402 180.75277 L 1373.787402 150.40381 L 1385.542611 150.40381 L 1400.490529 111.435057 L 1432.625948 111.435057 L 1432.625948 150.40381 L 1454.0947 150.40381 L 1454.0947 180.75277 L 1432.625948 180.75277 L 1432.625948 248.794442 L 1439.719699 255.888193 L 1459.589492 255.888193 L 1459.589492 286.99757 Z M 1554.084291 286.99757 L 1610.625962 94.117347 L 1690.167635 94.117347 L 1746.709306 286.99757 L 1694.896802 286.99757 L 1685.18326 248.539234 L 1615.610338 248.539234 L 1605.896795 286.99757 Z M 1625.256172 210.846523 L 1675.537426 210.846523 L 1655.094716 131.044433 L 1645.698882 131.044433 Z M 1768.938475 286.99757 L 1768.938475 250.070484 L 1790.407226 250.070484 L 1789.89681 131.044433 L 1768.938475 131.044433 L 1768.938475 94.117347 L 1857.875981 94.117347 L 1857.875981 131.044433 L 1836.724938 131.044433 L 1836.214521 250.070484 L 1857.875981 250.070484 L 1857.875981 286.99757 Z M 1768.938475 286.99757 " stroke="#fe8127" stroke-width="14.720456" stroke-opacity="1" stroke-miterlimit="4"/><g fill="#201f1e" fill-opacity="1"><g transform="translate(61.382183, 289.419791)"><g><path d="M 31.59375 0 L 9.8125 -21.78125 L 9.8125 -122.859375 L 31.59375 -144.640625 L 105.984375 -144.640625 L 127.96875 -122.859375 L 127.96875 -93.625 L 92.25 -93.625 L 92.25 -109.90625 L 85.171875 -116.78125 L 53.578125 -116.78125 L 46.515625 -109.90625 L 46.515625 -34.734375 L 53.578125 -27.875 L 86.359375 -27.875 L 93.625 -34.734375 L 93.625 -51.21875 L 129.140625 -51.21875 L 129.140625 -21.78125 L 107.359375 0 Z M 31.59375 0 "/></g></g></g><g fill="#201f1e" fill-opacity="1"><g transform="translate(201.713457, 289.419791)"><g><path d="M 31.59375 0 L 9.8125 -21.78125 L 9.8125 -80.671875 L 31.59375 -102.453125 L 95.578125 -102.453125 L 117.359375 -80.671875 L 117.359375 -21.78125 L 95.578125 0 Z M 53.390625 -20.40625 L 73.796875 -20.40625 L 80.671875 -27.484375 L 80.671875 -75.171875 L 73.796875 -82.03125 L 53.390625 -82.03125 L 46.515625 -75.171875 L 46.515625 -27.484375 Z M 53.390625 -20.40625 "/></g></g></g><g fill="#201f1e" fill-opacity="1"><g transform="translate(337.726832, 289.419791)"><g><path d="M 31.59375 0 L 9.8125 -21.78125 L 9.8125 -80.671875 L 31.59375 -102.640625 L 68.5 -102.640625 L 83.21875 -90.09375 L 83.21875 -144.640625 L 119.921875 -144.640625 L 119.921875 0 L 83.21875 0 L 83.21875 -12.359375 L 68.296875 0 Z M 50.25 -21 L 65.75 -21 L 83.21875 -36.109375 L 83.21875 -66.53125 L 65.9375 -81.640625 L 50.25 -81.640625 L 45.53125 -76.34375 L 45.53125 -25.90625 Z M 50.25 -21 "/></g></g></g><g fill="#201f1e" fill-opacity="1"><g transform="translate(479.235695, 289.419791)"><g><path d="M 31.59375 0 L 9.8125 -21.78125 L 9.8125 -80.671875 L 31.59375 -102.453125 L 89.296875 -102.453125 L 111.09375 -80.671875 L 111.09375 -41.796875 L 46.515625 -41.796875 L 46.515625 -32.78125 L 53.578125 -25.90625 L 109.515625 -25.90625 L 109.515625 0 Z M 46.515625 -63 L 77.71875 -63 L 77.71875 -75.171875 L 70.65625 -82.03125 L 53.578125 -82.03125 L 46.515625 -75.171875 Z M 46.515625 -63 "/></g></g></g><g fill="#201f1e" fill-opacity="1"><g transform="translate(609.949825, 289.419791)"><g><path d="M 31.59375 0 L 9.8125 -21.78125 L 9.8125 -122.859375 L 31.59375 -144.640625 L 105.984375 -144.640625 L 127.96875 -122.859375 L 127.96875 -93.625 L 92.25 -93.625 L 92.25 -109.90625 L 85.171875 -116.78125 L 53.578125 -116.78125 L 46.515625 -109.90625 L 46.515625 -34.734375 L 53.578125 -27.875 L 86.359375 -27.875 L 93.625 -34.734375 L 93.625 -51.21875 L 129.140625 -51.21875 L 129.140625 -21.78125 L 107.359375 0 Z M 31.59375 0 "/></g></g></g><g fill="#201f1e" fill-opacity="1"><g transform="translate(750.281114, 289.419791)"><g><path d="M 12.75 0 L 12.75 -102.640625 L 49.453125 -102.640625 L 49.453125 -86.546875 L 66.921875 -102.453125 L 86.953125 -102.453125 L 86.953125 -69.671875 L 57.5 -69.671875 L 49.453125 -62.40625 L 49.453125 0 Z M 12.75 0 "/></g></g></g><g fill="#201f1e" fill-opacity="1"><g transform="translate(848.022348, 289.419791)"><g><path d="M 27.671875 0 L 5.890625 -21.78125 L 5.890625 -43.578125 L 27.671875 -65.359375 L 76.546875 -65.359375 L 76.546875 -72.21875 L 69.484375 -79.296875 L 18.0625 -79.296875 L 18.0625 -102.453125 L 91.265625 -102.453125 L 113.25 -80.671875 L 113.25 0 L 76.546875 0 L 76.546875 -13.9375 L 63 0 Z M 49.265625 -20.015625 L 59.859375 -20.015625 L 76.546875 -36.703125 L 76.546875 -47.109375 L 49.265625 -47.109375 L 42.390625 -40.234375 L 42.390625 -26.890625 Z M 49.265625 -20.015625 "/></g></g></g><g fill="#201f1e" fill-opacity="1"><g transform="translate(980.895473, 289.419791)"><g><path d="M 12.5625 0 L 12.5625 -79.6875 L 4.3125 -79.6875 L 4.3125 -102.453125 L 12.5625 -102.453125 L 12.5625 -125.40625 L 33.359375 -144.640625 L 72.03125 -144.640625 L 72.03125 -123.25 L 54.765625 -123.25 L 49.265625 -117.953125 L 49.265625 -102.453125 L 67.3125 -102.453125 L 67.3125 -79.6875 L 49.265625 -79.6875 L 49.265625 0 Z M 12.5625 0 "/></g></g></g><g fill="#201f1e" fill-opacity="1"><g transform="translate(1061.757771, 289.419791)"><g><path d="M 33.953125 0 L 13.34375 -19.03125 L 13.34375 -79.6875 L 5.890625 -79.6875 L 5.890625 -102.453125 L 14.71875 -102.453125 L 25.90625 -131.6875 L 50.046875 -131.6875 L 50.046875 -102.453125 L 66.140625 -102.453125 L 66.140625 -79.6875 L 50.046875 -79.6875 L 50.046875 -28.65625 L 55.34375 -23.359375 L 70.265625 -23.359375 L 70.265625 0 Z M 33.953125 0 "/></g></g></g><g fill="#201f1e" fill-opacity="1"><g transform="translate(1145.760328, 289.419791)"><g/></g></g><g fill="#201f1e" fill-opacity="1"><g transform="translate(1202.874307, 289.419791)"><g><path d="M 0 0 L 42.390625 -144.640625 L 102.0625 -144.640625 L 144.453125 0 L 105.59375 0 L 98.328125 -28.84375 L 46.125 -28.84375 L 38.859375 0 Z M 53.390625 -57.109375 L 91.0625 -57.109375 L 75.765625 -116.96875 L 68.6875 -116.96875 Z M 53.390625 -57.109375 "/></g></g></g><g fill="#201f1e" fill-opacity="1"><g transform="translate(1356.159205, 289.419791)"><g><path d="M 7.84375 0 L 7.84375 -27.671875 L 23.9375 -27.671875 L 23.546875 -116.96875 L 7.84375 -116.96875 L 7.84375 -144.640625 L 74.578125 -144.640625 L 74.578125 -116.96875 L 58.6875 -116.96875 L 58.296875 -27.671875 L 74.578125 -27.671875 L 74.578125 0 Z M 7.84375 0 "/></g></g></g></svg>