<svg xmlns="http://www.w3.org/2000/svg" xmlns:xlink="http://www.w3.org/1999/xlink" width="500" zoomAndPan="magnify" viewBox="0 0 375 374.999991" height="500" preserveAspectRatio="xMidYMid meet" version="1.0"><defs><g/><clipPath id="74f5597ec1"><path d="M 23.425781 23.425781 L 351.574219 23.425781 L 351.574219 351.574219 L 23.425781 351.574219 Z M 23.425781 23.425781 " clip-rule="nonzero"/></clipPath><clipPath id="610b2d0741"><path d="M 187.5 23.425781 C 96.886719 23.425781 23.425781 96.886719 23.425781 187.5 C 23.425781 278.113281 96.886719 351.574219 187.5 351.574219 C 278.113281 351.574219 351.574219 278.113281 351.574219 187.5 C 351.574219 96.886719 278.113281 23.425781 187.5 23.425781 Z M 187.5 23.425781 " clip-rule="nonzero"/></clipPath></defs><g clip-path="url(#74f5597ec1)"><g clip-path="url(#610b2d0741)"><path fill="#201f1e" d="M 23.425781 23.425781 L 351.574219 23.425781 L 351.574219 351.574219 L 23.425781 351.574219 Z M 23.425781 23.425781 " fill-opacity="1" fill-rule="nonzero"/></g></g><g fill="#fe8127" fill-opacity="1"><g transform="translate(101.345763, 351.773802)"><g><path d="M 54.28125 -51.453125 L 29.734375 -76 L 127.4375 -173.703125 L 29.734375 -271.875 L 54.28125 -296.421875 L 176.53125 -173.703125 Z M 54.28125 -51.453125 "/></g></g></g></svg>