<svg xmlns="http://www.w3.org/2000/svg" xmlns:xlink="http://www.w3.org/1999/xlink" width="500" zoomAndPan="magnify" viewBox="0 0 375 374.999991" height="500" preserveAspectRatio="xMidYMid meet" version="1.0"><defs><clipPath id="3508d91015"><path d="M 23.496094 23.496094 L 351.5 23.496094 L 351.5 351.5 L 23.496094 351.5 Z M 23.496094 23.496094 " clip-rule="nonzero"/></clipPath><clipPath id="d798c1359c"><path d="M 187.496094 351.5 C 278.074219 351.5 351.5 278.074219 351.5 187.496094 C 351.5 96.921875 278.074219 23.496094 187.496094 23.496094 C 96.921875 23.496094 23.496094 96.921875 23.496094 187.496094 C 23.496094 278.074219 96.921875 351.5 187.496094 351.5 Z M 187.496094 351.5 " clip-rule="nonzero"/></clipPath><clipPath id="ba388820e2"><path d="M 68.488281 68 L 187.488281 68 L 187.488281 232.652344 L 68.488281 232.652344 Z M 68.488281 68 " clip-rule="nonzero"/></clipPath><clipPath id="d0d73dee25"><path d="M 187.5 142.347656 L 306.503906 142.347656 L 306.503906 307 L 187.5 307 Z M 187.5 142.347656 " clip-rule="nonzero"/></clipPath></defs><g clip-path="url(#3508d91015)"><g clip-path="url(#d798c1359c)"><path fill="#d9d9d9" d="M 351.5 351.5 L 23.496094 351.5 L 23.496094 23.496094 L 351.5 23.496094 Z M 351.5 351.5 " fill-opacity="1" fill-rule="nonzero"/></g></g><g clip-path="url(#ba388820e2)"><path fill="#f47823" d="M 187.488281 202.988281 C 187.488281 212.824219 187.488281 222.65625 187.488281 232.613281 C 147.667969 205.175781 107.964844 177.855469 68.144531 150.417969 C 107.964844 123.101562 147.667969 95.785156 187.488281 68.34375 C 187.488281 78.179688 187.488281 88.015625 187.488281 97.726562 L 111 150.296875 Z M 187.488281 202.988281 " fill-opacity="1" fill-rule="nonzero"/></g><g clip-path="url(#d0d73dee25)"><path fill="#2c342f" d="M 187.5 172.007812 C 187.5 162.175781 187.5 152.339844 187.5 142.386719 C 227.324219 169.824219 267.023438 197.140625 306.847656 224.578125 C 267.023438 251.898438 227.324219 279.214844 187.5 306.652344 C 187.5 296.820312 187.5 286.984375 187.5 277.273438 L 263.988281 224.703125 Z M 187.5 172.007812 " fill-opacity="1" fill-rule="nonzero"/></g></svg>